<svg xmlns="http://www.w3.org/2000/svg" viewBox="0 0 1200 600" fill="none">
  <title>Abstract flowing wave decorative lines</title>
  <desc>Thin layered blue flowing curves for a modern technology website background.</desc>
  <path d="M 0.0 274.0 L 15.0 285.1 L 30.0 296.1 L 45.0 306.7 L 60.0 317.0 L 75.0 326.7 L 90.0 335.7 L 105.0 344.0 L 120.0 351.4 L 135.0 357.8 L 150.0 363.2 L 165.0 367.6 L 180.0 370.9 L 195.0 373.2 L 210.0 374.4 L 225.0 374.5 L 240.0 373.6 L 255.0 371.8 L 270.0 369.2 L 285.0 365.7 L 300.0 361.5 L 315.0 356.7 L 330.0 351.3 L 345.0 345.6 L 360.0 339.5 L 375.0 333.1 L 390.0 326.6 L 405.0 320.0 L 420.0 313.4 L 435.0 306.9 L 450.0 300.4 L 465.0 294.1 L 480.0 288.0 L 495.0 282.1 L 510.0 276.3 L 525.0 270.8 L 540.0 265.5 L 555.0 260.3 L 570.0 255.3 L 585.0 250.5 L 600.0 245.8 L 615.0 241.2 L 630.0 236.7 L 645.0 232.3 L 660.0 227.9 L 675.0 223.6 L 690.0 219.4 L 705.0 215.3 L 720.0 211.2 L 735.0 207.3 L 750.0 203.5 L 765.0 200.0 L 780.0 196.7 L 795.0 193.7 L 810.0 191.2 L 825.0 189.1 L 840.0 187.5 L 855.0 186.6 L 870.0 186.3 L 885.0 186.7 L 900.0 188.0 L 915.0 190.0 L 930.0 192.9 L 945.0 196.7 L 960.0 201.4 L 975.0 207.0 L 990.0 213.4 L 1005.0 220.7 L 1020.0 228.7 L 1035.0 237.4 L 1050.0 246.8 L 1065.0 256.6 L 1080.0 266.9 L 1095.0 277.4 L 1110.0 288.1 L 1125.0 298.8 L 1140.0 309.4 L 1155.0 319.8 L 1170.0 329.7 L 1185.0 339.1 L 1200.0 347.8" stroke="#7DB5FF" stroke-width="1" opacity="0.211"/>
  <path d="M 0.0 280.5 L 15.0 291.6 L 30.0 302.6 L 45.0 313.2 L 60.0 323.5 L 75.0 333.2 L 90.0 342.2 L 105.0 350.5 L 120.0 357.9 L 135.0 364.3 L 150.0 369.7 L 165.0 374.1 L 180.0 377.4 L 195.0 379.7 L 210.0 380.9 L 225.0 381.0 L 240.0 380.1 L 255.0 378.3 L 270.0 375.7 L 285.0 372.2 L 300.0 368.0 L 315.0 363.2 L 330.0 357.8 L 345.0 352.1 L 360.0 346.0 L 375.0 339.6 L 390.0 333.1 L 405.0 326.5 L 420.0 319.9 L 435.0 313.4 L 450.0 306.9 L 465.0 300.6 L 480.0 294.5 L 495.0 288.6 L 510.0 282.8 L 525.0 277.3 L 540.0 272.0 L 555.0 266.8 L 570.0 261.8 L 585.0 257.0 L 600.0 252.3 L 615.0 247.7 L 630.0 243.2 L 645.0 238.8 L 660.0 234.4 L 675.0 230.1 L 690.0 225.9 L 705.0 221.8 L 720.0 217.7 L 735.0 213.8 L 750.0 210.0 L 765.0 206.5 L 780.0 203.2 L 795.0 200.2 L 810.0 197.7 L 825.0 195.6 L 840.0 194.0 L 855.0 193.1 L 870.0 192.8 L 885.0 193.2 L 900.0 194.5 L 915.0 196.5 L 930.0 199.4 L 945.0 203.2 L 960.0 207.9 L 975.0 213.5 L 990.0 219.9 L 1005.0 227.2 L 1020.0 235.2 L 1035.0 243.9 L 1050.0 253.3 L 1065.0 263.1 L 1080.0 273.4 L 1095.0 283.9 L 1110.0 294.6 L 1125.0 305.3 L 1140.0 315.9 L 1155.0 326.3 L 1170.0 336.2 L 1185.0 345.6 L 1200.0 354.3" stroke="#7DB5FF" stroke-width="1" opacity="0.227"/>
  <path d="M 0.0 287.0 L 15.0 298.1 L 30.0 309.1 L 45.0 319.7 L 60.0 330.0 L 75.0 339.7 L 90.0 348.7 L 105.0 357.0 L 120.0 364.4 L 135.0 370.8 L 150.0 376.2 L 165.0 380.6 L 180.0 383.9 L 195.0 386.2 L 210.0 387.4 L 225.0 387.5 L 240.0 386.6 L 255.0 384.8 L 270.0 382.2 L 285.0 378.7 L 300.0 374.5 L 315.0 369.7 L 330.0 364.3 L 345.0 358.6 L 360.0 352.5 L 375.0 346.1 L 390.0 339.6 L 405.0 333.0 L 420.0 326.4 L 435.0 319.9 L 450.0 313.4 L 465.0 307.1 L 480.0 301.0 L 495.0 295.1 L 510.0 289.3 L 525.0 283.8 L 540.0 278.5 L 555.0 273.3 L 570.0 268.3 L 585.0 263.5 L 600.0 258.8 L 615.0 254.2 L 630.0 249.7 L 645.0 245.3 L 660.0 240.9 L 675.0 236.6 L 690.0 232.4 L 705.0 228.3 L 720.0 224.2 L 735.0 220.3 L 750.0 216.5 L 765.0 213.0 L 780.0 209.7 L 795.0 206.7 L 810.0 204.2 L 825.0 202.1 L 840.0 200.5 L 855.0 199.6 L 870.0 199.3 L 885.0 199.7 L 900.0 201.0 L 915.0 203.0 L 930.0 205.9 L 945.0 209.7 L 960.0 214.4 L 975.0 220.0 L 990.0 226.4 L 1005.0 233.7 L 1020.0 241.7 L 1035.0 250.4 L 1050.0 259.8 L 1065.0 269.6 L 1080.0 279.9 L 1095.0 290.4 L 1110.0 301.1 L 1125.0 311.8 L 1140.0 322.4 L 1155.0 332.8 L 1170.0 342.7 L 1185.0 352.1 L 1200.0 360.8" stroke="#7DB5FF" stroke-width="1" opacity="0.243"/>
  <path d="M 0.0 293.5 L 15.0 304.6 L 30.0 315.6 L 45.0 326.2 L 60.0 336.5 L 75.0 346.2 L 90.0 355.2 L 105.0 363.5 L 120.0 370.9 L 135.0 377.3 L 150.0 382.7 L 165.0 387.1 L 180.0 390.4 L 195.0 392.7 L 210.0 393.9 L 225.0 394.0 L 240.0 393.1 L 255.0 391.3 L 270.0 388.7 L 285.0 385.2 L 300.0 381.0 L 315.0 376.2 L 330.0 370.8 L 345.0 365.1 L 360.0 359.0 L 375.0 352.6 L 390.0 346.1 L 405.0 339.5 L 420.0 332.9 L 435.0 326.4 L 450.0 319.9 L 465.0 313.6 L 480.0 307.5 L 495.0 301.6 L 510.0 295.8 L 525.0 290.3 L 540.0 285.0 L 555.0 279.8 L 570.0 274.8 L 585.0 270.0 L 600.0 265.3 L 615.0 260.7 L 630.0 256.2 L 645.0 251.8 L 660.0 247.4 L 675.0 243.1 L 690.0 238.9 L 705.0 234.8 L 720.0 230.7 L 735.0 226.8 L 750.0 223.0 L 765.0 219.5 L 780.0 216.2 L 795.0 213.2 L 810.0 210.7 L 825.0 208.6 L 840.0 207.0 L 855.0 206.1 L 870.0 205.8 L 885.0 206.2 L 900.0 207.5 L 915.0 209.5 L 930.0 212.4 L 945.0 216.2 L 960.0 220.9 L 975.0 226.5 L 990.0 232.9 L 1005.0 240.2 L 1020.0 248.2 L 1035.0 256.9 L 1050.0 266.3 L 1065.0 276.1 L 1080.0 286.4 L 1095.0 296.9 L 1110.0 307.6 L 1125.0 318.3 L 1140.0 328.9 L 1155.0 339.3 L 1170.0 349.2 L 1185.0 358.6 L 1200.0 367.3" stroke="#7DB5FF" stroke-width="1" opacity="0.259"/>
  <path d="M 0.0 300.0 L 15.0 311.1 L 30.0 322.1 L 45.0 332.7 L 60.0 343.0 L 75.0 352.7 L 90.0 361.7 L 105.0 370.0 L 120.0 377.4 L 135.0 383.8 L 150.0 389.2 L 165.0 393.6 L 180.0 396.9 L 195.0 399.2 L 210.0 400.4 L 225.0 400.5 L 240.0 399.6 L 255.0 397.8 L 270.0 395.2 L 285.0 391.7 L 300.0 387.5 L 315.0 382.7 L 330.0 377.3 L 345.0 371.6 L 360.0 365.5 L 375.0 359.1 L 390.0 352.6 L 405.0 346.0 L 420.0 339.4 L 435.0 332.9 L 450.0 326.4 L 465.0 320.1 L 480.0 314.0 L 495.0 308.1 L 510.0 302.3 L 525.0 296.8 L 540.0 291.5 L 555.0 286.3 L 570.0 281.3 L 585.0 276.5 L 600.0 271.8 L 615.0 267.2 L 630.0 262.7 L 645.0 258.3 L 660.0 253.9 L 675.0 249.6 L 690.0 245.4 L 705.0 241.3 L 720.0 237.2 L 735.0 233.3 L 750.0 229.5 L 765.0 226.0 L 780.0 222.7 L 795.0 219.7 L 810.0 217.2 L 825.0 215.1 L 840.0 213.5 L 855.0 212.6 L 870.0 212.3 L 885.0 212.7 L 900.0 214.0 L 915.0 216.0 L 930.0 218.9 L 945.0 222.7 L 960.0 227.4 L 975.0 233.0 L 990.0 239.4 L 1005.0 246.7 L 1020.0 254.7 L 1035.0 263.4 L 1050.0 272.8 L 1065.0 282.6 L 1080.0 292.9 L 1095.0 303.4 L 1110.0 314.1 L 1125.0 324.8 L 1140.0 335.4 L 1155.0 345.8 L 1170.0 355.7 L 1185.0 365.1 L 1200.0 373.8" stroke="#7DB5FF" stroke-width="1" opacity="0.275"/>
  <path d="M 0.0 306.5 L 15.0 317.6 L 30.0 328.6 L 45.0 339.2 L 60.0 349.5 L 75.0 359.2 L 90.0 368.2 L 105.0 376.5 L 120.0 383.9 L 135.0 390.3 L 150.0 395.7 L 165.0 400.1 L 180.0 403.4 L 195.0 405.7 L 210.0 406.9 L 225.0 407.0 L 240.0 406.1 L 255.0 404.3 L 270.0 401.7 L 285.0 398.2 L 300.0 394.0 L 315.0 389.2 L 330.0 383.8 L 345.0 378.1 L 360.0 372.0 L 375.0 365.6 L 390.0 359.1 L 405.0 352.5 L 420.0 345.9 L 435.0 339.4 L 450.0 332.9 L 465.0 326.6 L 480.0 320.5 L 495.0 314.6 L 510.0 308.8 L 525.0 303.3 L 540.0 298.0 L 555.0 292.8 L 570.0 287.8 L 585.0 283.0 L 600.0 278.3 L 615.0 273.7 L 630.0 269.2 L 645.0 264.8 L 660.0 260.4 L 675.0 256.1 L 690.0 251.9 L 705.0 247.8 L 720.0 243.7 L 735.0 239.8 L 750.0 236.0 L 765.0 232.5 L 780.0 229.2 L 795.0 226.2 L 810.0 223.7 L 825.0 221.6 L 840.0 220.0 L 855.0 219.1 L 870.0 218.8 L 885.0 219.2 L 900.0 220.5 L 915.0 222.5 L 930.0 225.4 L 945.0 229.2 L 960.0 233.9 L 975.0 239.5 L 990.0 245.9 L 1005.0 253.2 L 1020.0 261.2 L 1035.0 269.9 L 1050.0 279.3 L 1065.0 289.1 L 1080.0 299.4 L 1095.0 309.9 L 1110.0 320.6 L 1125.0 331.3 L 1140.0 341.9 L 1155.0 352.3 L 1170.0 362.2 L 1185.0 371.6 L 1200.0 380.3" stroke="#7DB5FF" stroke-width="1" opacity="0.292"/>
  <path d="M 0.0 313.0 L 15.0 324.1 L 30.0 335.1 L 45.0 345.7 L 60.0 356.0 L 75.0 365.7 L 90.0 374.7 L 105.0 383.0 L 120.0 390.4 L 135.0 396.8 L 150.0 402.2 L 165.0 406.6 L 180.0 409.9 L 195.0 412.2 L 210.0 413.4 L 225.0 413.5 L 240.0 412.6 L 255.0 410.8 L 270.0 408.2 L 285.0 404.7 L 300.0 400.5 L 315.0 395.7 L 330.0 390.3 L 345.0 384.6 L 360.0 378.5 L 375.0 372.1 L 390.0 365.6 L 405.0 359.0 L 420.0 352.4 L 435.0 345.9 L 450.0 339.4 L 465.0 333.1 L 480.0 327.0 L 495.0 321.1 L 510.0 315.3 L 525.0 309.8 L 540.0 304.5 L 555.0 299.3 L 570.0 294.3 L 585.0 289.5 L 600.0 284.8 L 615.0 280.2 L 630.0 275.7 L 645.0 271.3 L 660.0 266.9 L 675.0 262.6 L 690.0 258.4 L 705.0 254.3 L 720.0 250.2 L 735.0 246.3 L 750.0 242.5 L 765.0 239.0 L 780.0 235.7 L 795.0 232.7 L 810.0 230.2 L 825.0 228.1 L 840.0 226.5 L 855.0 225.6 L 870.0 225.3 L 885.0 225.7 L 900.0 227.0 L 915.0 229.0 L 930.0 231.9 L 945.0 235.7 L 960.0 240.4 L 975.0 246.0 L 990.0 252.4 L 1005.0 259.7 L 1020.0 267.7 L 1035.0 276.4 L 1050.0 285.8 L 1065.0 295.6 L 1080.0 305.9 L 1095.0 316.4 L 1110.0 327.1 L 1125.0 337.8 L 1140.0 348.4 L 1155.0 358.8 L 1170.0 368.7 L 1185.0 378.1 L 1200.0 386.8" stroke="#7DB5FF" stroke-width="1" opacity="0.308"/>
  <path d="M 0.0 319.5 L 15.0 330.6 L 30.0 341.6 L 45.0 352.2 L 60.0 362.5 L 75.0 372.2 L 90.0 381.2 L 105.0 389.5 L 120.0 396.9 L 135.0 403.3 L 150.0 408.7 L 165.0 413.1 L 180.0 416.4 L 195.0 418.7 L 210.0 419.9 L 225.0 420.0 L 240.0 419.1 L 255.0 417.3 L 270.0 414.7 L 285.0 411.2 L 300.0 407.0 L 315.0 402.2 L 330.0 396.8 L 345.0 391.1 L 360.0 385.0 L 375.0 378.6 L 390.0 372.1 L 405.0 365.5 L 420.0 358.9 L 435.0 352.4 L 450.0 345.9 L 465.0 339.6 L 480.0 333.5 L 495.0 327.6 L 510.0 321.8 L 525.0 316.3 L 540.0 311.0 L 555.0 305.8 L 570.0 300.8 L 585.0 296.0 L 600.0 291.3 L 615.0 286.7 L 630.0 282.2 L 645.0 277.8 L 660.0 273.4 L 675.0 269.1 L 690.0 264.9 L 705.0 260.8 L 720.0 256.7 L 735.0 252.8 L 750.0 249.0 L 765.0 245.5 L 780.0 242.2 L 795.0 239.2 L 810.0 236.7 L 825.0 234.6 L 840.0 233.0 L 855.0 232.1 L 870.0 231.8 L 885.0 232.2 L 900.0 233.5 L 915.0 235.5 L 930.0 238.4 L 945.0 242.2 L 960.0 246.9 L 975.0 252.5 L 990.0 258.9 L 1005.0 266.2 L 1020.0 274.2 L 1035.0 282.9 L 1050.0 292.3 L 1065.0 302.1 L 1080.0 312.4 L 1095.0 322.9 L 1110.0 333.6 L 1125.0 344.3 L 1140.0 354.9 L 1155.0 365.3 L 1170.0 375.2 L 1185.0 384.6 L 1200.0 393.3" stroke="#7DB5FF" stroke-width="1" opacity="0.324"/>
  <path d="M 0.0 326.0 L 15.0 337.1 L 30.0 348.1 L 45.0 358.7 L 60.0 369.0 L 75.0 378.7 L 90.0 387.7 L 105.0 396.0 L 120.0 403.4 L 135.0 409.8 L 150.0 415.2 L 165.0 419.6 L 180.0 422.9 L 195.0 425.2 L 210.0 426.4 L 225.0 426.5 L 240.0 425.6 L 255.0 423.8 L 270.0 421.2 L 285.0 417.7 L 300.0 413.5 L 315.0 408.7 L 330.0 403.3 L 345.0 397.6 L 360.0 391.5 L 375.0 385.1 L 390.0 378.6 L 405.0 372.0 L 420.0 365.4 L 435.0 358.9 L 450.0 352.4 L 465.0 346.1 L 480.0 340.0 L 495.0 334.1 L 510.0 328.3 L 525.0 322.8 L 540.0 317.5 L 555.0 312.3 L 570.0 307.3 L 585.0 302.5 L 600.0 297.8 L 615.0 293.2 L 630.0 288.7 L 645.0 284.3 L 660.0 279.9 L 675.0 275.6 L 690.0 271.4 L 705.0 267.3 L 720.0 263.2 L 735.0 259.3 L 750.0 255.5 L 765.0 252.0 L 780.0 248.7 L 795.0 245.7 L 810.0 243.2 L 825.0 241.1 L 840.0 239.5 L 855.0 238.6 L 870.0 238.3 L 885.0 238.7 L 900.0 240.0 L 915.0 242.0 L 930.0 244.9 L 945.0 248.7 L 960.0 253.4 L 975.0 259.0 L 990.0 265.4 L 1005.0 272.7 L 1020.0 280.7 L 1035.0 289.4 L 1050.0 298.8 L 1065.0 308.6 L 1080.0 318.9 L 1095.0 329.4 L 1110.0 340.1 L 1125.0 350.8 L 1140.0 361.4 L 1155.0 371.8 L 1170.0 381.7 L 1185.0 391.1 L 1200.0 399.8" stroke="#7DB5FF" stroke-width="1" opacity="0.340"/>
  <path d="M 0.0 345.7 L 15.0 354.3 L 30.0 362.5 L 45.0 370.4 L 60.0 377.8 L 75.0 384.5 L 90.0 390.6 L 105.0 395.8 L 120.0 400.1 L 135.0 403.5 L 150.0 405.8 L 165.0 407.1 L 180.0 407.3 L 195.0 406.5 L 210.0 404.6 L 225.0 401.6 L 240.0 397.7 L 255.0 392.8 L 270.0 387.0 L 285.0 380.5 L 300.0 373.3 L 315.0 365.6 L 330.0 357.4 L 345.0 348.8 L 360.0 340.0 L 375.0 331.1 L 390.0 322.3 L 405.0 313.5 L 420.0 305.0 L 435.0 296.7 L 450.0 288.9 L 465.0 281.5 L 480.0 274.7 L 495.0 268.5 L 510.0 262.8 L 525.0 257.8 L 540.0 253.5 L 555.0 249.7 L 570.0 246.6 L 585.0 244.2 L 600.0 242.3 L 615.0 240.9 L 630.0 240.0 L 645.0 239.6 L 660.0 239.6 L 675.0 239.9 L 690.0 240.6 L 705.0 241.5 L 720.0 242.7 L 735.0 244.1 L 750.0 245.7 L 765.0 247.4 L 780.0 249.3 L 795.0 251.4 L 810.0 253.6 L 825.0 256.1 L 840.0 258.7 L 855.0 261.5 L 870.0 264.6 L 885.0 267.9 L 900.0 271.5 L 915.0 275.5 L 930.0 279.8 L 945.0 284.4 L 960.0 289.4 L 975.0 294.8 L 990.0 300.5 L 1005.0 306.6 L 1020.0 313.0 L 1035.0 319.7 L 1050.0 326.6 L 1065.0 333.7 L 1080.0 340.9 L 1095.0 348.1 L 1110.0 355.3 L 1125.0 362.4 L 1140.0 369.2 L 1155.0 375.6 L 1170.0 381.7 L 1185.0 387.2 L 1200.0 392.0" stroke="#7DB5FF" stroke-width="1" opacity="0.174"/>
  <path d="M 0.0 352.2 L 15.0 360.8 L 30.0 369.0 L 45.0 376.9 L 60.0 384.3 L 75.0 391.0 L 90.0 397.1 L 105.0 402.3 L 120.0 406.6 L 135.0 410.0 L 150.0 412.3 L 165.0 413.6 L 180.0 413.8 L 195.0 413.0 L 210.0 411.1 L 225.0 408.1 L 240.0 404.2 L 255.0 399.3 L 270.0 393.5 L 285.0 387.0 L 300.0 379.8 L 315.0 372.1 L 330.0 363.9 L 345.0 355.3 L 360.0 346.5 L 375.0 337.6 L 390.0 328.8 L 405.0 320.0 L 420.0 311.5 L 435.0 303.2 L 450.0 295.4 L 465.0 288.0 L 480.0 281.2 L 495.0 275.0 L 510.0 269.3 L 525.0 264.3 L 540.0 260.0 L 555.0 256.2 L 570.0 253.1 L 585.0 250.7 L 600.0 248.8 L 615.0 247.4 L 630.0 246.5 L 645.0 246.1 L 660.0 246.1 L 675.0 246.4 L 690.0 247.1 L 705.0 248.0 L 720.0 249.2 L 735.0 250.6 L 750.0 252.2 L 765.0 253.9 L 780.0 255.8 L 795.0 257.9 L 810.0 260.1 L 825.0 262.6 L 840.0 265.2 L 855.0 268.0 L 870.0 271.1 L 885.0 274.4 L 900.0 278.0 L 915.0 282.0 L 930.0 286.3 L 945.0 290.9 L 960.0 295.9 L 975.0 301.3 L 990.0 307.0 L 1005.0 313.1 L 1020.0 319.5 L 1035.0 326.2 L 1050.0 333.1 L 1065.0 340.2 L 1080.0 347.4 L 1095.0 354.6 L 1110.0 361.8 L 1125.0 368.9 L 1140.0 375.7 L 1155.0 382.1 L 1170.0 388.2 L 1185.0 393.7 L 1200.0 398.5" stroke="#7DB5FF" stroke-width="1" opacity="0.187"/>
  <path d="M 0.0 358.7 L 15.0 367.3 L 30.0 375.5 L 45.0 383.4 L 60.0 390.8 L 75.0 397.5 L 90.0 403.6 L 105.0 408.8 L 120.0 413.1 L 135.0 416.5 L 150.0 418.8 L 165.0 420.1 L 180.0 420.3 L 195.0 419.5 L 210.0 417.6 L 225.0 414.6 L 240.0 410.7 L 255.0 405.8 L 270.0 400.0 L 285.0 393.5 L 300.0 386.3 L 315.0 378.6 L 330.0 370.4 L 345.0 361.8 L 360.0 353.0 L 375.0 344.1 L 390.0 335.3 L 405.0 326.5 L 420.0 318.0 L 435.0 309.7 L 450.0 301.9 L 465.0 294.5 L 480.0 287.7 L 495.0 281.5 L 510.0 275.8 L 525.0 270.8 L 540.0 266.5 L 555.0 262.7 L 570.0 259.6 L 585.0 257.2 L 600.0 255.3 L 615.0 253.9 L 630.0 253.0 L 645.0 252.6 L 660.0 252.6 L 675.0 252.9 L 690.0 253.6 L 705.0 254.5 L 720.0 255.7 L 735.0 257.1 L 750.0 258.7 L 765.0 260.4 L 780.0 262.3 L 795.0 264.4 L 810.0 266.6 L 825.0 269.1 L 840.0 271.7 L 855.0 274.5 L 870.0 277.6 L 885.0 280.9 L 900.0 284.5 L 915.0 288.5 L 930.0 292.8 L 945.0 297.4 L 960.0 302.4 L 975.0 307.8 L 990.0 313.5 L 1005.0 319.6 L 1020.0 326.0 L 1035.0 332.7 L 1050.0 339.6 L 1065.0 346.7 L 1080.0 353.9 L 1095.0 361.1 L 1110.0 368.3 L 1125.0 375.4 L 1140.0 382.2 L 1155.0 388.6 L 1170.0 394.7 L 1185.0 400.2 L 1200.0 405.0" stroke="#7DB5FF" stroke-width="1" opacity="0.200"/>
  <path d="M 0.0 365.2 L 15.0 373.8 L 30.0 382.0 L 45.0 389.9 L 60.0 397.3 L 75.0 404.0 L 90.0 410.1 L 105.0 415.3 L 120.0 419.6 L 135.0 423.0 L 150.0 425.3 L 165.0 426.6 L 180.0 426.8 L 195.0 426.0 L 210.0 424.1 L 225.0 421.1 L 240.0 417.2 L 255.0 412.3 L 270.0 406.5 L 285.0 400.0 L 300.0 392.8 L 315.0 385.1 L 330.0 376.9 L 345.0 368.3 L 360.0 359.5 L 375.0 350.6 L 390.0 341.8 L 405.0 333.0 L 420.0 324.5 L 435.0 316.2 L 450.0 308.4 L 465.0 301.0 L 480.0 294.2 L 495.0 288.0 L 510.0 282.3 L 525.0 277.3 L 540.0 273.0 L 555.0 269.2 L 570.0 266.1 L 585.0 263.7 L 600.0 261.8 L 615.0 260.4 L 630.0 259.5 L 645.0 259.1 L 660.0 259.1 L 675.0 259.4 L 690.0 260.1 L 705.0 261.0 L 720.0 262.2 L 735.0 263.6 L 750.0 265.2 L 765.0 266.9 L 780.0 268.8 L 795.0 270.9 L 810.0 273.1 L 825.0 275.6 L 840.0 278.2 L 855.0 281.0 L 870.0 284.1 L 885.0 287.4 L 900.0 291.0 L 915.0 295.0 L 930.0 299.3 L 945.0 303.9 L 960.0 308.9 L 975.0 314.3 L 990.0 320.0 L 1005.0 326.1 L 1020.0 332.5 L 1035.0 339.2 L 1050.0 346.1 L 1065.0 353.2 L 1080.0 360.4 L 1095.0 367.6 L 1110.0 374.8 L 1125.0 381.9 L 1140.0 388.7 L 1155.0 395.1 L 1170.0 401.2 L 1185.0 406.7 L 1200.0 411.5" stroke="#7DB5FF" stroke-width="1" opacity="0.213"/>
  <path d="M 0.0 371.7 L 15.0 380.3 L 30.0 388.5 L 45.0 396.4 L 60.0 403.8 L 75.0 410.5 L 90.0 416.6 L 105.0 421.8 L 120.0 426.1 L 135.0 429.5 L 150.0 431.8 L 165.0 433.1 L 180.0 433.3 L 195.0 432.5 L 210.0 430.6 L 225.0 427.6 L 240.0 423.7 L 255.0 418.8 L 270.0 413.0 L 285.0 406.5 L 300.0 399.3 L 315.0 391.6 L 330.0 383.4 L 345.0 374.8 L 360.0 366.0 L 375.0 357.1 L 390.0 348.3 L 405.0 339.5 L 420.0 331.0 L 435.0 322.7 L 450.0 314.9 L 465.0 307.5 L 480.0 300.7 L 495.0 294.5 L 510.0 288.8 L 525.0 283.8 L 540.0 279.5 L 555.0 275.7 L 570.0 272.6 L 585.0 270.2 L 600.0 268.3 L 615.0 266.9 L 630.0 266.0 L 645.0 265.6 L 660.0 265.6 L 675.0 265.9 L 690.0 266.6 L 705.0 267.5 L 720.0 268.7 L 735.0 270.1 L 750.0 271.7 L 765.0 273.4 L 780.0 275.3 L 795.0 277.4 L 810.0 279.6 L 825.0 282.1 L 840.0 284.7 L 855.0 287.5 L 870.0 290.6 L 885.0 293.9 L 900.0 297.5 L 915.0 301.5 L 930.0 305.8 L 945.0 310.4 L 960.0 315.4 L 975.0 320.8 L 990.0 326.5 L 1005.0 332.6 L 1020.0 339.0 L 1035.0 345.7 L 1050.0 352.6 L 1065.0 359.7 L 1080.0 366.9 L 1095.0 374.1 L 1110.0 381.3 L 1125.0 388.4 L 1140.0 395.2 L 1155.0 401.6 L 1170.0 407.7 L 1185.0 413.2 L 1200.0 418.0" stroke="#7DB5FF" stroke-width="1" opacity="0.227"/>
  <path d="M 0.0 378.2 L 15.0 386.8 L 30.0 395.0 L 45.0 402.9 L 60.0 410.3 L 75.0 417.0 L 90.0 423.1 L 105.0 428.3 L 120.0 432.6 L 135.0 436.0 L 150.0 438.3 L 165.0 439.6 L 180.0 439.8 L 195.0 439.0 L 210.0 437.1 L 225.0 434.1 L 240.0 430.2 L 255.0 425.3 L 270.0 419.5 L 285.0 413.0 L 300.0 405.8 L 315.0 398.1 L 330.0 389.9 L 345.0 381.3 L 360.0 372.5 L 375.0 363.6 L 390.0 354.8 L 405.0 346.0 L 420.0 337.5 L 435.0 329.2 L 450.0 321.4 L 465.0 314.0 L 480.0 307.2 L 495.0 301.0 L 510.0 295.3 L 525.0 290.3 L 540.0 286.0 L 555.0 282.2 L 570.0 279.1 L 585.0 276.7 L 600.0 274.8 L 615.0 273.4 L 630.0 272.5 L 645.0 272.1 L 660.0 272.1 L 675.0 272.4 L 690.0 273.1 L 705.0 274.0 L 720.0 275.2 L 735.0 276.6 L 750.0 278.2 L 765.0 279.9 L 780.0 281.8 L 795.0 283.9 L 810.0 286.1 L 825.0 288.6 L 840.0 291.2 L 855.0 294.0 L 870.0 297.1 L 885.0 300.4 L 900.0 304.0 L 915.0 308.0 L 930.0 312.3 L 945.0 316.9 L 960.0 321.9 L 975.0 327.3 L 990.0 333.0 L 1005.0 339.1 L 1020.0 345.5 L 1035.0 352.2 L 1050.0 359.1 L 1065.0 366.2 L 1080.0 373.4 L 1095.0 380.6 L 1110.0 387.8 L 1125.0 394.9 L 1140.0 401.7 L 1155.0 408.1 L 1170.0 414.2 L 1185.0 419.7 L 1200.0 424.5" stroke="#7DB5FF" stroke-width="1" opacity="0.240"/>
  <path d="M 0.0 384.7 L 15.0 393.3 L 30.0 401.5 L 45.0 409.4 L 60.0 416.8 L 75.0 423.5 L 90.0 429.6 L 105.0 434.8 L 120.0 439.1 L 135.0 442.5 L 150.0 444.8 L 165.0 446.1 L 180.0 446.3 L 195.0 445.5 L 210.0 443.6 L 225.0 440.6 L 240.0 436.7 L 255.0 431.8 L 270.0 426.0 L 285.0 419.5 L 300.0 412.3 L 315.0 404.6 L 330.0 396.4 L 345.0 387.8 L 360.0 379.0 L 375.0 370.1 L 390.0 361.3 L 405.0 352.5 L 420.0 344.0 L 435.0 335.7 L 450.0 327.9 L 465.0 320.5 L 480.0 313.7 L 495.0 307.5 L 510.0 301.8 L 525.0 296.8 L 540.0 292.5 L 555.0 288.7 L 570.0 285.6 L 585.0 283.2 L 600.0 281.3 L 615.0 279.9 L 630.0 279.0 L 645.0 278.6 L 660.0 278.6 L 675.0 278.9 L 690.0 279.6 L 705.0 280.5 L 720.0 281.7 L 735.0 283.1 L 750.0 284.7 L 765.0 286.4 L 780.0 288.3 L 795.0 290.4 L 810.0 292.6 L 825.0 295.1 L 840.0 297.7 L 855.0 300.5 L 870.0 303.6 L 885.0 306.9 L 900.0 310.5 L 915.0 314.5 L 930.0 318.8 L 945.0 323.4 L 960.0 328.4 L 975.0 333.8 L 990.0 339.5 L 1005.0 345.6 L 1020.0 352.0 L 1035.0 358.7 L 1050.0 365.6 L 1065.0 372.7 L 1080.0 379.9 L 1095.0 387.1 L 1110.0 394.3 L 1125.0 401.4 L 1140.0 408.2 L 1155.0 414.6 L 1170.0 420.7 L 1185.0 426.2 L 1200.0 431.0" stroke="#7DB5FF" stroke-width="1" opacity="0.253"/>
  <path d="M 0.0 391.2 L 15.0 399.8 L 30.0 408.0 L 45.0 415.9 L 60.0 423.3 L 75.0 430.0 L 90.0 436.1 L 105.0 441.3 L 120.0 445.6 L 135.0 449.0 L 150.0 451.3 L 165.0 452.6 L 180.0 452.8 L 195.0 452.0 L 210.0 450.1 L 225.0 447.1 L 240.0 443.2 L 255.0 438.3 L 270.0 432.5 L 285.0 426.0 L 300.0 418.8 L 315.0 411.1 L 330.0 402.9 L 345.0 394.3 L 360.0 385.5 L 375.0 376.6 L 390.0 367.8 L 405.0 359.0 L 420.0 350.5 L 435.0 342.2 L 450.0 334.4 L 465.0 327.0 L 480.0 320.2 L 495.0 314.0 L 510.0 308.3 L 525.0 303.3 L 540.0 299.0 L 555.0 295.2 L 570.0 292.1 L 585.0 289.7 L 600.0 287.8 L 615.0 286.4 L 630.0 285.5 L 645.0 285.1 L 660.0 285.1 L 675.0 285.4 L 690.0 286.1 L 705.0 287.0 L 720.0 288.2 L 735.0 289.6 L 750.0 291.2 L 765.0 292.9 L 780.0 294.8 L 795.0 296.9 L 810.0 299.1 L 825.0 301.6 L 840.0 304.2 L 855.0 307.0 L 870.0 310.1 L 885.0 313.4 L 900.0 317.0 L 915.0 321.0 L 930.0 325.3 L 945.0 329.9 L 960.0 334.9 L 975.0 340.3 L 990.0 346.0 L 1005.0 352.1 L 1020.0 358.5 L 1035.0 365.2 L 1050.0 372.1 L 1065.0 379.2 L 1080.0 386.4 L 1095.0 393.6 L 1110.0 400.8 L 1125.0 407.9 L 1140.0 414.7 L 1155.0 421.1 L 1170.0 427.2 L 1185.0 432.7 L 1200.0 437.5" stroke="#7DB5FF" stroke-width="1" opacity="0.267"/>
  <path d="M 0.0 397.7 L 15.0 406.3 L 30.0 414.5 L 45.0 422.4 L 60.0 429.8 L 75.0 436.5 L 90.0 442.6 L 105.0 447.8 L 120.0 452.1 L 135.0 455.5 L 150.0 457.8 L 165.0 459.1 L 180.0 459.3 L 195.0 458.5 L 210.0 456.6 L 225.0 453.6 L 240.0 449.7 L 255.0 444.8 L 270.0 439.0 L 285.0 432.5 L 300.0 425.3 L 315.0 417.6 L 330.0 409.4 L 345.0 400.8 L 360.0 392.0 L 375.0 383.1 L 390.0 374.3 L 405.0 365.5 L 420.0 357.0 L 435.0 348.7 L 450.0 340.9 L 465.0 333.5 L 480.0 326.7 L 495.0 320.5 L 510.0 314.8 L 525.0 309.8 L 540.0 305.5 L 555.0 301.7 L 570.0 298.6 L 585.0 296.2 L 600.0 294.3 L 615.0 292.9 L 630.0 292.0 L 645.0 291.6 L 660.0 291.6 L 675.0 291.9 L 690.0 292.6 L 705.0 293.5 L 720.0 294.7 L 735.0 296.1 L 750.0 297.7 L 765.0 299.4 L 780.0 301.3 L 795.0 303.4 L 810.0 305.6 L 825.0 308.1 L 840.0 310.7 L 855.0 313.5 L 870.0 316.6 L 885.0 319.9 L 900.0 323.5 L 915.0 327.5 L 930.0 331.8 L 945.0 336.4 L 960.0 341.4 L 975.0 346.8 L 990.0 352.5 L 1005.0 358.6 L 1020.0 365.0 L 1035.0 371.7 L 1050.0 378.6 L 1065.0 385.7 L 1080.0 392.9 L 1095.0 400.1 L 1110.0 407.3 L 1125.0 414.4 L 1140.0 421.2 L 1155.0 427.6 L 1170.0 433.7 L 1185.0 439.2 L 1200.0 444.0" stroke="#7DB5FF" stroke-width="1" opacity="0.280"/>
  <path d="M 0.0 402.5 L 15.0 407.4 L 30.0 411.9 L 45.0 416.1 L 60.0 419.9 L 75.0 423.1 L 90.0 425.7 L 105.0 427.6 L 120.0 428.8 L 135.0 429.3 L 150.0 428.9 L 165.0 427.7 L 180.0 425.6 L 195.0 422.7 L 210.0 418.9 L 225.0 414.3 L 240.0 408.9 L 255.0 402.8 L 270.0 396.0 L 285.0 388.7 L 300.0 380.8 L 315.0 372.5 L 330.0 364.0 L 345.0 355.2 L 360.0 346.4 L 375.0 337.6 L 390.0 329.0 L 405.0 320.6 L 420.0 312.6 L 435.0 305.1 L 450.0 298.2 L 465.0 291.9 L 480.0 286.3 L 495.0 281.5 L 510.0 277.4 L 525.0 274.2 L 540.0 271.9 L 555.0 270.4 L 570.0 269.7 L 585.0 269.9 L 600.0 270.8 L 615.0 272.4 L 630.0 274.7 L 645.0 277.6 L 660.0 281.0 L 675.0 284.9 L 690.0 289.2 L 705.0 293.8 L 720.0 298.6 L 735.0 303.6 L 750.0 308.6 L 765.0 313.8 L 780.0 318.9 L 795.0 324.0 L 810.0 329.0 L 825.0 333.8 L 840.0 338.6 L 855.0 343.2 L 870.0 347.6 L 885.0 351.9 L 900.0 356.1 L 915.0 360.1 L 930.0 364.0 L 945.0 367.8 L 960.0 371.6 L 975.0 375.2 L 990.0 378.9 L 1005.0 382.4 L 1020.0 386.0 L 1035.0 389.5 L 1050.0 392.9 L 1065.0 396.3 L 1080.0 399.6 L 1095.0 402.8 L 1110.0 405.9 L 1125.0 408.7 L 1140.0 411.4 L 1155.0 413.7 L 1170.0 415.7 L 1185.0 417.3 L 1200.0 418.5" stroke="#7DB5FF" stroke-width="1" opacity="0.143"/>
  <path d="M 0.0 409.0 L 15.0 413.9 L 30.0 418.4 L 45.0 422.6 L 60.0 426.4 L 75.0 429.6 L 90.0 432.2 L 105.0 434.1 L 120.0 435.3 L 135.0 435.8 L 150.0 435.4 L 165.0 434.2 L 180.0 432.1 L 195.0 429.2 L 210.0 425.4 L 225.0 420.8 L 240.0 415.4 L 255.0 409.3 L 270.0 402.5 L 285.0 395.2 L 300.0 387.3 L 315.0 379.0 L 330.0 370.5 L 345.0 361.7 L 360.0 352.9 L 375.0 344.1 L 390.0 335.5 L 405.0 327.1 L 420.0 319.1 L 435.0 311.6 L 450.0 304.7 L 465.0 298.4 L 480.0 292.8 L 495.0 288.0 L 510.0 283.9 L 525.0 280.7 L 540.0 278.4 L 555.0 276.9 L 570.0 276.2 L 585.0 276.4 L 600.0 277.3 L 615.0 278.9 L 630.0 281.2 L 645.0 284.1 L 660.0 287.5 L 675.0 291.4 L 690.0 295.7 L 705.0 300.3 L 720.0 305.1 L 735.0 310.1 L 750.0 315.1 L 765.0 320.3 L 780.0 325.4 L 795.0 330.5 L 810.0 335.5 L 825.0 340.3 L 840.0 345.1 L 855.0 349.7 L 870.0 354.1 L 885.0 358.4 L 900.0 362.6 L 915.0 366.6 L 930.0 370.5 L 945.0 374.3 L 960.0 378.1 L 975.0 381.7 L 990.0 385.4 L 1005.0 388.9 L 1020.0 392.5 L 1035.0 396.0 L 1050.0 399.4 L 1065.0 402.8 L 1080.0 406.1 L 1095.0 409.3 L 1110.0 412.4 L 1125.0 415.2 L 1140.0 417.9 L 1155.0 420.2 L 1170.0 422.2 L 1185.0 423.8 L 1200.0 425.0" stroke="#7DB5FF" stroke-width="1" opacity="0.154"/>
  <path d="M 0.0 415.5 L 15.0 420.4 L 30.0 424.9 L 45.0 429.1 L 60.0 432.9 L 75.0 436.1 L 90.0 438.7 L 105.0 440.6 L 120.0 441.8 L 135.0 442.3 L 150.0 441.9 L 165.0 440.7 L 180.0 438.6 L 195.0 435.7 L 210.0 431.9 L 225.0 427.3 L 240.0 421.9 L 255.0 415.8 L 270.0 409.0 L 285.0 401.7 L 300.0 393.8 L 315.0 385.5 L 330.0 377.0 L 345.0 368.2 L 360.0 359.4 L 375.0 350.6 L 390.0 342.0 L 405.0 333.6 L 420.0 325.6 L 435.0 318.1 L 450.0 311.2 L 465.0 304.9 L 480.0 299.3 L 495.0 294.5 L 510.0 290.4 L 525.0 287.2 L 540.0 284.9 L 555.0 283.4 L 570.0 282.7 L 585.0 282.9 L 600.0 283.8 L 615.0 285.4 L 630.0 287.7 L 645.0 290.6 L 660.0 294.0 L 675.0 297.9 L 690.0 302.2 L 705.0 306.8 L 720.0 311.6 L 735.0 316.6 L 750.0 321.6 L 765.0 326.8 L 780.0 331.9 L 795.0 337.0 L 810.0 342.0 L 825.0 346.8 L 840.0 351.6 L 855.0 356.2 L 870.0 360.6 L 885.0 364.9 L 900.0 369.1 L 915.0 373.1 L 930.0 377.0 L 945.0 380.8 L 960.0 384.6 L 975.0 388.2 L 990.0 391.9 L 1005.0 395.4 L 1020.0 399.0 L 1035.0 402.5 L 1050.0 405.9 L 1065.0 409.3 L 1080.0 412.6 L 1095.0 415.8 L 1110.0 418.9 L 1125.0 421.7 L 1140.0 424.4 L 1155.0 426.7 L 1170.0 428.7 L 1185.0 430.3 L 1200.0 431.5" stroke="#7DB5FF" stroke-width="1" opacity="0.164"/>
  <path d="M 0.0 422.0 L 15.0 426.9 L 30.0 431.4 L 45.0 435.6 L 60.0 439.4 L 75.0 442.6 L 90.0 445.2 L 105.0 447.1 L 120.0 448.3 L 135.0 448.8 L 150.0 448.4 L 165.0 447.2 L 180.0 445.1 L 195.0 442.2 L 210.0 438.4 L 225.0 433.8 L 240.0 428.4 L 255.0 422.3 L 270.0 415.5 L 285.0 408.2 L 300.0 400.3 L 315.0 392.0 L 330.0 383.5 L 345.0 374.7 L 360.0 365.9 L 375.0 357.1 L 390.0 348.5 L 405.0 340.1 L 420.0 332.1 L 435.0 324.6 L 450.0 317.7 L 465.0 311.4 L 480.0 305.8 L 495.0 301.0 L 510.0 296.9 L 525.0 293.7 L 540.0 291.4 L 555.0 289.9 L 570.0 289.2 L 585.0 289.4 L 600.0 290.3 L 615.0 291.9 L 630.0 294.2 L 645.0 297.1 L 660.0 300.5 L 675.0 304.4 L 690.0 308.7 L 705.0 313.3 L 720.0 318.1 L 735.0 323.1 L 750.0 328.1 L 765.0 333.3 L 780.0 338.4 L 795.0 343.5 L 810.0 348.5 L 825.0 353.3 L 840.0 358.1 L 855.0 362.7 L 870.0 367.1 L 885.0 371.4 L 900.0 375.6 L 915.0 379.6 L 930.0 383.5 L 945.0 387.3 L 960.0 391.1 L 975.0 394.7 L 990.0 398.4 L 1005.0 401.9 L 1020.0 405.5 L 1035.0 409.0 L 1050.0 412.4 L 1065.0 415.8 L 1080.0 419.1 L 1095.0 422.3 L 1110.0 425.4 L 1125.0 428.2 L 1140.0 430.9 L 1155.0 433.2 L 1170.0 435.2 L 1185.0 436.8 L 1200.0 438.0" stroke="#7DB5FF" stroke-width="1" opacity="0.175"/>
  <path d="M 0.0 428.5 L 15.0 433.4 L 30.0 437.9 L 45.0 442.1 L 60.0 445.9 L 75.0 449.1 L 90.0 451.7 L 105.0 453.6 L 120.0 454.8 L 135.0 455.3 L 150.0 454.9 L 165.0 453.7 L 180.0 451.6 L 195.0 448.7 L 210.0 444.9 L 225.0 440.3 L 240.0 434.9 L 255.0 428.8 L 270.0 422.0 L 285.0 414.7 L 300.0 406.8 L 315.0 398.5 L 330.0 390.0 L 345.0 381.2 L 360.0 372.4 L 375.0 363.6 L 390.0 355.0 L 405.0 346.6 L 420.0 338.6 L 435.0 331.1 L 450.0 324.2 L 465.0 317.9 L 480.0 312.3 L 495.0 307.5 L 510.0 303.4 L 525.0 300.2 L 540.0 297.9 L 555.0 296.4 L 570.0 295.7 L 585.0 295.9 L 600.0 296.8 L 615.0 298.4 L 630.0 300.7 L 645.0 303.6 L 660.0 307.0 L 675.0 310.9 L 690.0 315.2 L 705.0 319.8 L 720.0 324.6 L 735.0 329.6 L 750.0 334.6 L 765.0 339.8 L 780.0 344.9 L 795.0 350.0 L 810.0 355.0 L 825.0 359.8 L 840.0 364.6 L 855.0 369.2 L 870.0 373.6 L 885.0 377.9 L 900.0 382.1 L 915.0 386.1 L 930.0 390.0 L 945.0 393.8 L 960.0 397.6 L 975.0 401.2 L 990.0 404.9 L 1005.0 408.4 L 1020.0 412.0 L 1035.0 415.5 L 1050.0 418.9 L 1065.0 422.3 L 1080.0 425.6 L 1095.0 428.8 L 1110.0 431.9 L 1125.0 434.7 L 1140.0 437.4 L 1155.0 439.7 L 1170.0 441.7 L 1185.0 443.3 L 1200.0 444.5" stroke="#7DB5FF" stroke-width="1" opacity="0.186"/>
  <path d="M 0.0 435.0 L 15.0 439.9 L 30.0 444.4 L 45.0 448.6 L 60.0 452.4 L 75.0 455.6 L 90.0 458.2 L 105.0 460.1 L 120.0 461.3 L 135.0 461.8 L 150.0 461.4 L 165.0 460.2 L 180.0 458.1 L 195.0 455.2 L 210.0 451.4 L 225.0 446.8 L 240.0 441.4 L 255.0 435.3 L 270.0 428.5 L 285.0 421.2 L 300.0 413.3 L 315.0 405.0 L 330.0 396.5 L 345.0 387.7 L 360.0 378.9 L 375.0 370.1 L 390.0 361.5 L 405.0 353.1 L 420.0 345.1 L 435.0 337.6 L 450.0 330.7 L 465.0 324.4 L 480.0 318.8 L 495.0 314.0 L 510.0 309.9 L 525.0 306.7 L 540.0 304.4 L 555.0 302.9 L 570.0 302.2 L 585.0 302.4 L 600.0 303.3 L 615.0 304.9 L 630.0 307.2 L 645.0 310.1 L 660.0 313.5 L 675.0 317.4 L 690.0 321.7 L 705.0 326.3 L 720.0 331.1 L 735.0 336.1 L 750.0 341.1 L 765.0 346.3 L 780.0 351.4 L 795.0 356.5 L 810.0 361.5 L 825.0 366.3 L 840.0 371.1 L 855.0 375.7 L 870.0 380.1 L 885.0 384.4 L 900.0 388.6 L 915.0 392.6 L 930.0 396.5 L 945.0 400.3 L 960.0 404.1 L 975.0 407.7 L 990.0 411.4 L 1005.0 414.9 L 1020.0 418.5 L 1035.0 422.0 L 1050.0 425.4 L 1065.0 428.8 L 1080.0 432.1 L 1095.0 435.3 L 1110.0 438.4 L 1125.0 441.2 L 1140.0 443.9 L 1155.0 446.2 L 1170.0 448.2 L 1185.0 449.8 L 1200.0 451.0" stroke="#7DB5FF" stroke-width="1" opacity="0.197"/>
  <path d="M 0.0 441.5 L 15.0 446.4 L 30.0 450.9 L 45.0 455.1 L 60.0 458.9 L 75.0 462.1 L 90.0 464.7 L 105.0 466.6 L 120.0 467.8 L 135.0 468.3 L 150.0 467.9 L 165.0 466.7 L 180.0 464.6 L 195.0 461.7 L 210.0 457.9 L 225.0 453.3 L 240.0 447.9 L 255.0 441.8 L 270.0 435.0 L 285.0 427.7 L 300.0 419.8 L 315.0 411.5 L 330.0 403.0 L 345.0 394.2 L 360.0 385.4 L 375.0 376.6 L 390.0 368.0 L 405.0 359.6 L 420.0 351.6 L 435.0 344.1 L 450.0 337.2 L 465.0 330.9 L 480.0 325.3 L 495.0 320.5 L 510.0 316.4 L 525.0 313.2 L 540.0 310.9 L 555.0 309.4 L 570.0 308.7 L 585.0 308.9 L 600.0 309.8 L 615.0 311.4 L 630.0 313.7 L 645.0 316.6 L 660.0 320.0 L 675.0 323.9 L 690.0 328.2 L 705.0 332.8 L 720.0 337.6 L 735.0 342.6 L 750.0 347.6 L 765.0 352.8 L 780.0 357.9 L 795.0 363.0 L 810.0 368.0 L 825.0 372.8 L 840.0 377.6 L 855.0 382.2 L 870.0 386.6 L 885.0 390.9 L 900.0 395.1 L 915.0 399.1 L 930.0 403.0 L 945.0 406.8 L 960.0 410.6 L 975.0 414.2 L 990.0 417.9 L 1005.0 421.4 L 1020.0 425.0 L 1035.0 428.5 L 1050.0 431.9 L 1065.0 435.3 L 1080.0 438.6 L 1095.0 441.8 L 1110.0 444.9 L 1125.0 447.7 L 1140.0 450.4 L 1155.0 452.7 L 1170.0 454.7 L 1185.0 456.3 L 1200.0 457.5" stroke="#7DB5FF" stroke-width="1" opacity="0.208"/>
  <path d="M 0.0 448.0 L 15.0 452.9 L 30.0 457.4 L 45.0 461.6 L 60.0 465.4 L 75.0 468.6 L 90.0 471.2 L 105.0 473.1 L 120.0 474.3 L 135.0 474.8 L 150.0 474.4 L 165.0 473.2 L 180.0 471.1 L 195.0 468.2 L 210.0 464.4 L 225.0 459.8 L 240.0 454.4 L 255.0 448.3 L 270.0 441.5 L 285.0 434.2 L 300.0 426.3 L 315.0 418.0 L 330.0 409.5 L 345.0 400.7 L 360.0 391.9 L 375.0 383.1 L 390.0 374.5 L 405.0 366.1 L 420.0 358.1 L 435.0 350.6 L 450.0 343.7 L 465.0 337.4 L 480.0 331.8 L 495.0 327.0 L 510.0 322.9 L 525.0 319.7 L 540.0 317.4 L 555.0 315.9 L 570.0 315.2 L 585.0 315.4 L 600.0 316.3 L 615.0 317.9 L 630.0 320.2 L 645.0 323.1 L 660.0 326.5 L 675.0 330.4 L 690.0 334.7 L 705.0 339.3 L 720.0 344.1 L 735.0 349.1 L 750.0 354.1 L 765.0 359.3 L 780.0 364.4 L 795.0 369.5 L 810.0 374.5 L 825.0 379.3 L 840.0 384.1 L 855.0 388.7 L 870.0 393.1 L 885.0 397.4 L 900.0 401.6 L 915.0 405.6 L 930.0 409.5 L 945.0 413.3 L 960.0 417.1 L 975.0 420.7 L 990.0 424.4 L 1005.0 427.9 L 1020.0 431.5 L 1035.0 435.0 L 1050.0 438.4 L 1065.0 441.8 L 1080.0 445.1 L 1095.0 448.3 L 1110.0 451.4 L 1125.0 454.2 L 1140.0 456.9 L 1155.0 459.2 L 1170.0 461.2 L 1185.0 462.8 L 1200.0 464.0" stroke="#7DB5FF" stroke-width="1" opacity="0.219"/>
  <path d="M 0.0 454.5 L 15.0 459.4 L 30.0 463.9 L 45.0 468.1 L 60.0 471.9 L 75.0 475.1 L 90.0 477.7 L 105.0 479.6 L 120.0 480.8 L 135.0 481.3 L 150.0 480.9 L 165.0 479.7 L 180.0 477.6 L 195.0 474.7 L 210.0 470.9 L 225.0 466.3 L 240.0 460.9 L 255.0 454.8 L 270.0 448.0 L 285.0 440.7 L 300.0 432.8 L 315.0 424.5 L 330.0 416.0 L 345.0 407.2 L 360.0 398.4 L 375.0 389.6 L 390.0 381.0 L 405.0 372.6 L 420.0 364.6 L 435.0 357.1 L 450.0 350.2 L 465.0 343.9 L 480.0 338.3 L 495.0 333.5 L 510.0 329.4 L 525.0 326.2 L 540.0 323.9 L 555.0 322.4 L 570.0 321.7 L 585.0 321.9 L 600.0 322.8 L 615.0 324.4 L 630.0 326.7 L 645.0 329.6 L 660.0 333.0 L 675.0 336.9 L 690.0 341.2 L 705.0 345.8 L 720.0 350.6 L 735.0 355.6 L 750.0 360.6 L 765.0 365.8 L 780.0 370.9 L 795.0 376.0 L 810.0 381.0 L 825.0 385.8 L 840.0 390.6 L 855.0 395.2 L 870.0 399.6 L 885.0 403.9 L 900.0 408.1 L 915.0 412.1 L 930.0 416.0 L 945.0 419.8 L 960.0 423.6 L 975.0 427.2 L 990.0 430.9 L 1005.0 434.4 L 1020.0 438.0 L 1035.0 441.5 L 1050.0 444.9 L 1065.0 448.3 L 1080.0 451.6 L 1095.0 454.8 L 1110.0 457.9 L 1125.0 460.7 L 1140.0 463.4 L 1155.0 465.7 L 1170.0 467.7 L 1185.0 469.3 L 1200.0 470.5" stroke="#7DB5FF" stroke-width="1" opacity="0.230"/>
  <path d="M 0.0 441.7 L 15.0 442.7 L 30.0 443.5 L 45.0 444.0 L 60.0 444.2 L 75.0 444.2 L 90.0 443.7 L 105.0 442.9 L 120.0 441.6 L 135.0 439.9 L 150.0 437.7 L 165.0 434.9 L 180.0 431.7 L 195.0 427.9 L 210.0 423.6 L 225.0 418.8 L 240.0 413.5 L 255.0 407.8 L 270.0 401.7 L 285.0 395.3 L 300.0 388.6 L 315.0 381.7 L 330.0 374.6 L 345.0 367.6 L 360.0 360.6 L 375.0 353.8 L 390.0 347.2 L 405.0 341.0 L 420.0 335.1 L 435.0 329.8 L 450.0 325.1 L 465.0 321.1 L 480.0 317.7 L 495.0 315.1 L 510.0 313.4 L 525.0 312.4 L 540.0 312.3 L 555.0 313.1 L 570.0 314.6 L 585.0 317.0 L 600.0 320.1 L 615.0 323.9 L 630.0 328.4 L 645.0 333.4 L 660.0 339.0 L 675.0 344.9 L 690.0 351.2 L 705.0 357.7 L 720.0 364.4 L 735.0 371.1 L 750.0 377.8 L 765.0 384.4 L 780.0 390.8 L 795.0 397.0 L 810.0 402.9 L 825.0 408.4 L 840.0 413.5 L 855.0 418.2 L 870.0 422.4 L 885.0 426.2 L 900.0 429.5 L 915.0 432.4 L 930.0 434.8 L 945.0 436.8 L 960.0 438.4 L 975.0 439.6 L 990.0 440.5 L 1005.0 441.1 L 1020.0 441.4 L 1035.0 441.5 L 1050.0 441.3 L 1065.0 441.0 L 1080.0 440.4 L 1095.0 439.8 L 1110.0 439.0 L 1125.0 438.0 L 1140.0 436.9 L 1155.0 435.7 L 1170.0 434.3 L 1185.0 432.7 L 1200.0 430.9" stroke="#7DB5FF" stroke-width="1" opacity="0.118"/>
  <path d="M 0.0 448.2 L 15.0 449.2 L 30.0 450.0 L 45.0 450.5 L 60.0 450.7 L 75.0 450.7 L 90.0 450.2 L 105.0 449.4 L 120.0 448.1 L 135.0 446.4 L 150.0 444.2 L 165.0 441.4 L 180.0 438.2 L 195.0 434.4 L 210.0 430.1 L 225.0 425.3 L 240.0 420.0 L 255.0 414.3 L 270.0 408.2 L 285.0 401.8 L 300.0 395.1 L 315.0 388.2 L 330.0 381.1 L 345.0 374.1 L 360.0 367.1 L 375.0 360.3 L 390.0 353.7 L 405.0 347.5 L 420.0 341.6 L 435.0 336.3 L 450.0 331.6 L 465.0 327.6 L 480.0 324.2 L 495.0 321.6 L 510.0 319.9 L 525.0 318.9 L 540.0 318.8 L 555.0 319.6 L 570.0 321.1 L 585.0 323.5 L 600.0 326.6 L 615.0 330.4 L 630.0 334.9 L 645.0 339.9 L 660.0 345.5 L 675.0 351.4 L 690.0 357.7 L 705.0 364.2 L 720.0 370.9 L 735.0 377.6 L 750.0 384.3 L 765.0 390.9 L 780.0 397.3 L 795.0 403.5 L 810.0 409.4 L 825.0 414.9 L 840.0 420.0 L 855.0 424.7 L 870.0 428.9 L 885.0 432.7 L 900.0 436.0 L 915.0 438.9 L 930.0 441.3 L 945.0 443.3 L 960.0 444.9 L 975.0 446.1 L 990.0 447.0 L 1005.0 447.6 L 1020.0 447.9 L 1035.0 448.0 L 1050.0 447.8 L 1065.0 447.5 L 1080.0 446.9 L 1095.0 446.3 L 1110.0 445.5 L 1125.0 444.5 L 1140.0 443.4 L 1155.0 442.2 L 1170.0 440.8 L 1185.0 439.2 L 1200.0 437.4" stroke="#7DB5FF" stroke-width="1" opacity="0.127"/>
  <path d="M 0.0 454.7 L 15.0 455.7 L 30.0 456.5 L 45.0 457.0 L 60.0 457.2 L 75.0 457.2 L 90.0 456.7 L 105.0 455.9 L 120.0 454.6 L 135.0 452.9 L 150.0 450.7 L 165.0 447.9 L 180.0 444.7 L 195.0 440.9 L 210.0 436.6 L 225.0 431.8 L 240.0 426.5 L 255.0 420.8 L 270.0 414.7 L 285.0 408.3 L 300.0 401.6 L 315.0 394.7 L 330.0 387.6 L 345.0 380.6 L 360.0 373.6 L 375.0 366.8 L 390.0 360.2 L 405.0 354.0 L 420.0 348.1 L 435.0 342.8 L 450.0 338.1 L 465.0 334.1 L 480.0 330.7 L 495.0 328.1 L 510.0 326.4 L 525.0 325.4 L 540.0 325.3 L 555.0 326.1 L 570.0 327.6 L 585.0 330.0 L 600.0 333.1 L 615.0 336.9 L 630.0 341.4 L 645.0 346.4 L 660.0 352.0 L 675.0 357.9 L 690.0 364.2 L 705.0 370.7 L 720.0 377.4 L 735.0 384.1 L 750.0 390.8 L 765.0 397.4 L 780.0 403.8 L 795.0 410.0 L 810.0 415.9 L 825.0 421.4 L 840.0 426.5 L 855.0 431.2 L 870.0 435.4 L 885.0 439.2 L 900.0 442.5 L 915.0 445.4 L 930.0 447.8 L 945.0 449.8 L 960.0 451.4 L 975.0 452.6 L 990.0 453.5 L 1005.0 454.1 L 1020.0 454.4 L 1035.0 454.5 L 1050.0 454.3 L 1065.0 454.0 L 1080.0 453.4 L 1095.0 452.8 L 1110.0 452.0 L 1125.0 451.0 L 1140.0 449.9 L 1155.0 448.7 L 1170.0 447.3 L 1185.0 445.7 L 1200.0 443.9" stroke="#7DB5FF" stroke-width="1" opacity="0.136"/>
  <path d="M 0.0 461.2 L 15.0 462.2 L 30.0 463.0 L 45.0 463.5 L 60.0 463.7 L 75.0 463.7 L 90.0 463.2 L 105.0 462.4 L 120.0 461.1 L 135.0 459.4 L 150.0 457.2 L 165.0 454.4 L 180.0 451.2 L 195.0 447.4 L 210.0 443.1 L 225.0 438.3 L 240.0 433.0 L 255.0 427.3 L 270.0 421.2 L 285.0 414.8 L 300.0 408.1 L 315.0 401.2 L 330.0 394.1 L 345.0 387.1 L 360.0 380.1 L 375.0 373.3 L 390.0 366.7 L 405.0 360.5 L 420.0 354.6 L 435.0 349.3 L 450.0 344.6 L 465.0 340.6 L 480.0 337.2 L 495.0 334.6 L 510.0 332.9 L 525.0 331.9 L 540.0 331.8 L 555.0 332.6 L 570.0 334.1 L 585.0 336.5 L 600.0 339.6 L 615.0 343.4 L 630.0 347.9 L 645.0 352.9 L 660.0 358.5 L 675.0 364.4 L 690.0 370.7 L 705.0 377.2 L 720.0 383.9 L 735.0 390.6 L 750.0 397.3 L 765.0 403.9 L 780.0 410.3 L 795.0 416.5 L 810.0 422.4 L 825.0 427.9 L 840.0 433.0 L 855.0 437.7 L 870.0 441.9 L 885.0 445.7 L 900.0 449.0 L 915.0 451.9 L 930.0 454.3 L 945.0 456.3 L 960.0 457.9 L 975.0 459.1 L 990.0 460.0 L 1005.0 460.6 L 1020.0 460.9 L 1035.0 461.0 L 1050.0 460.8 L 1065.0 460.5 L 1080.0 459.9 L 1095.0 459.3 L 1110.0 458.5 L 1125.0 457.5 L 1140.0 456.4 L 1155.0 455.2 L 1170.0 453.8 L 1185.0 452.2 L 1200.0 450.4" stroke="#7DB5FF" stroke-width="1" opacity="0.145"/>
  <path d="M 0.0 467.7 L 15.0 468.7 L 30.0 469.5 L 45.0 470.0 L 60.0 470.2 L 75.0 470.2 L 90.0 469.7 L 105.0 468.9 L 120.0 467.6 L 135.0 465.9 L 150.0 463.7 L 165.0 460.9 L 180.0 457.7 L 195.0 453.9 L 210.0 449.6 L 225.0 444.8 L 240.0 439.5 L 255.0 433.8 L 270.0 427.7 L 285.0 421.3 L 300.0 414.6 L 315.0 407.7 L 330.0 400.6 L 345.0 393.6 L 360.0 386.6 L 375.0 379.8 L 390.0 373.2 L 405.0 367.0 L 420.0 361.1 L 435.0 355.8 L 450.0 351.1 L 465.0 347.1 L 480.0 343.7 L 495.0 341.1 L 510.0 339.4 L 525.0 338.4 L 540.0 338.3 L 555.0 339.1 L 570.0 340.6 L 585.0 343.0 L 600.0 346.1 L 615.0 349.9 L 630.0 354.4 L 645.0 359.4 L 660.0 365.0 L 675.0 370.9 L 690.0 377.2 L 705.0 383.7 L 720.0 390.4 L 735.0 397.1 L 750.0 403.8 L 765.0 410.4 L 780.0 416.8 L 795.0 423.0 L 810.0 428.9 L 825.0 434.4 L 840.0 439.5 L 855.0 444.2 L 870.0 448.4 L 885.0 452.2 L 900.0 455.5 L 915.0 458.4 L 930.0 460.8 L 945.0 462.8 L 960.0 464.4 L 975.0 465.6 L 990.0 466.5 L 1005.0 467.1 L 1020.0 467.4 L 1035.0 467.5 L 1050.0 467.3 L 1065.0 467.0 L 1080.0 466.4 L 1095.0 465.8 L 1110.0 465.0 L 1125.0 464.0 L 1140.0 462.9 L 1155.0 461.7 L 1170.0 460.3 L 1185.0 458.7 L 1200.0 456.9" stroke="#7DB5FF" stroke-width="1" opacity="0.154"/>
  <path d="M 0.0 474.2 L 15.0 475.2 L 30.0 476.0 L 45.0 476.5 L 60.0 476.7 L 75.0 476.7 L 90.0 476.2 L 105.0 475.4 L 120.0 474.1 L 135.0 472.4 L 150.0 470.2 L 165.0 467.4 L 180.0 464.2 L 195.0 460.4 L 210.0 456.1 L 225.0 451.3 L 240.0 446.0 L 255.0 440.3 L 270.0 434.2 L 285.0 427.8 L 300.0 421.1 L 315.0 414.2 L 330.0 407.1 L 345.0 400.1 L 360.0 393.1 L 375.0 386.3 L 390.0 379.7 L 405.0 373.5 L 420.0 367.6 L 435.0 362.3 L 450.0 357.6 L 465.0 353.6 L 480.0 350.2 L 495.0 347.6 L 510.0 345.9 L 525.0 344.9 L 540.0 344.8 L 555.0 345.6 L 570.0 347.1 L 585.0 349.5 L 600.0 352.6 L 615.0 356.4 L 630.0 360.9 L 645.0 365.9 L 660.0 371.5 L 675.0 377.4 L 690.0 383.7 L 705.0 390.2 L 720.0 396.9 L 735.0 403.6 L 750.0 410.3 L 765.0 416.9 L 780.0 423.3 L 795.0 429.5 L 810.0 435.4 L 825.0 440.9 L 840.0 446.0 L 855.0 450.7 L 870.0 454.9 L 885.0 458.7 L 900.0 462.0 L 915.0 464.9 L 930.0 467.3 L 945.0 469.3 L 960.0 470.9 L 975.0 472.1 L 990.0 473.0 L 1005.0 473.6 L 1020.0 473.9 L 1035.0 474.0 L 1050.0 473.8 L 1065.0 473.5 L 1080.0 472.9 L 1095.0 472.3 L 1110.0 471.5 L 1125.0 470.5 L 1140.0 469.4 L 1155.0 468.2 L 1170.0 466.8 L 1185.0 465.2 L 1200.0 463.4" stroke="#7DB5FF" stroke-width="1" opacity="0.163"/>
  <path d="M 0.0 480.7 L 15.0 481.7 L 30.0 482.5 L 45.0 483.0 L 60.0 483.2 L 75.0 483.2 L 90.0 482.7 L 105.0 481.9 L 120.0 480.6 L 135.0 478.9 L 150.0 476.7 L 165.0 473.9 L 180.0 470.7 L 195.0 466.9 L 210.0 462.6 L 225.0 457.8 L 240.0 452.5 L 255.0 446.8 L 270.0 440.7 L 285.0 434.3 L 300.0 427.6 L 315.0 420.7 L 330.0 413.6 L 345.0 406.6 L 360.0 399.6 L 375.0 392.8 L 390.0 386.2 L 405.0 380.0 L 420.0 374.1 L 435.0 368.8 L 450.0 364.1 L 465.0 360.1 L 480.0 356.7 L 495.0 354.1 L 510.0 352.4 L 525.0 351.4 L 540.0 351.3 L 555.0 352.1 L 570.0 353.6 L 585.0 356.0 L 600.0 359.1 L 615.0 362.9 L 630.0 367.4 L 645.0 372.4 L 660.0 378.0 L 675.0 383.9 L 690.0 390.2 L 705.0 396.7 L 720.0 403.4 L 735.0 410.1 L 750.0 416.8 L 765.0 423.4 L 780.0 429.8 L 795.0 436.0 L 810.0 441.9 L 825.0 447.4 L 840.0 452.5 L 855.0 457.2 L 870.0 461.4 L 885.0 465.2 L 900.0 468.5 L 915.0 471.4 L 930.0 473.8 L 945.0 475.8 L 960.0 477.4 L 975.0 478.6 L 990.0 479.5 L 1005.0 480.1 L 1020.0 480.4 L 1035.0 480.5 L 1050.0 480.3 L 1065.0 480.0 L 1080.0 479.4 L 1095.0 478.8 L 1110.0 478.0 L 1125.0 477.0 L 1140.0 475.9 L 1155.0 474.7 L 1170.0 473.3 L 1185.0 471.7 L 1200.0 469.9" stroke="#7DB5FF" stroke-width="1" opacity="0.172"/>
  <path d="M 0.0 487.2 L 15.0 488.2 L 30.0 489.0 L 45.0 489.5 L 60.0 489.7 L 75.0 489.7 L 90.0 489.2 L 105.0 488.4 L 120.0 487.1 L 135.0 485.4 L 150.0 483.2 L 165.0 480.4 L 180.0 477.2 L 195.0 473.4 L 210.0 469.1 L 225.0 464.3 L 240.0 459.0 L 255.0 453.3 L 270.0 447.2 L 285.0 440.8 L 300.0 434.1 L 315.0 427.2 L 330.0 420.1 L 345.0 413.1 L 360.0 406.1 L 375.0 399.3 L 390.0 392.7 L 405.0 386.5 L 420.0 380.6 L 435.0 375.3 L 450.0 370.6 L 465.0 366.6 L 480.0 363.2 L 495.0 360.6 L 510.0 358.9 L 525.0 357.9 L 540.0 357.8 L 555.0 358.6 L 570.0 360.1 L 585.0 362.5 L 600.0 365.6 L 615.0 369.4 L 630.0 373.9 L 645.0 378.9 L 660.0 384.5 L 675.0 390.4 L 690.0 396.7 L 705.0 403.2 L 720.0 409.9 L 735.0 416.6 L 750.0 423.3 L 765.0 429.9 L 780.0 436.3 L 795.0 442.5 L 810.0 448.4 L 825.0 453.9 L 840.0 459.0 L 855.0 463.7 L 870.0 467.9 L 885.0 471.7 L 900.0 475.0 L 915.0 477.9 L 930.0 480.3 L 945.0 482.3 L 960.0 483.9 L 975.0 485.1 L 990.0 486.0 L 1005.0 486.6 L 1020.0 486.9 L 1035.0 487.0 L 1050.0 486.8 L 1065.0 486.5 L 1080.0 485.9 L 1095.0 485.3 L 1110.0 484.5 L 1125.0 483.5 L 1140.0 482.4 L 1155.0 481.2 L 1170.0 479.8 L 1185.0 478.2 L 1200.0 476.4" stroke="#7DB5FF" stroke-width="1" opacity="0.181"/>
  <path d="M 0.0 493.7 L 15.0 494.7 L 30.0 495.5 L 45.0 496.0 L 60.0 496.2 L 75.0 496.2 L 90.0 495.7 L 105.0 494.9 L 120.0 493.6 L 135.0 491.9 L 150.0 489.7 L 165.0 486.9 L 180.0 483.7 L 195.0 479.9 L 210.0 475.6 L 225.0 470.8 L 240.0 465.5 L 255.0 459.8 L 270.0 453.7 L 285.0 447.3 L 300.0 440.6 L 315.0 433.7 L 330.0 426.6 L 345.0 419.6 L 360.0 412.6 L 375.0 405.8 L 390.0 399.2 L 405.0 393.0 L 420.0 387.1 L 435.0 381.8 L 450.0 377.1 L 465.0 373.1 L 480.0 369.7 L 495.0 367.1 L 510.0 365.4 L 525.0 364.4 L 540.0 364.3 L 555.0 365.1 L 570.0 366.6 L 585.0 369.0 L 600.0 372.1 L 615.0 375.9 L 630.0 380.4 L 645.0 385.4 L 660.0 391.0 L 675.0 396.9 L 690.0 403.2 L 705.0 409.7 L 720.0 416.4 L 735.0 423.1 L 750.0 429.8 L 765.0 436.4 L 780.0 442.8 L 795.0 449.0 L 810.0 454.9 L 825.0 460.4 L 840.0 465.5 L 855.0 470.2 L 870.0 474.4 L 885.0 478.2 L 900.0 481.5 L 915.0 484.4 L 930.0 486.8 L 945.0 488.8 L 960.0 490.4 L 975.0 491.6 L 990.0 492.5 L 1005.0 493.1 L 1020.0 493.4 L 1035.0 493.5 L 1050.0 493.3 L 1065.0 493.0 L 1080.0 492.4 L 1095.0 491.8 L 1110.0 491.0 L 1125.0 490.0 L 1140.0 488.9 L 1155.0 487.7 L 1170.0 486.3 L 1185.0 484.7 L 1200.0 482.9" stroke="#7DB5FF" stroke-width="1" opacity="0.190"/>
  <path d="M -40 430 C 180 260, 350 250, 530 390 S 900 560, 1240 315" stroke="#A6CFFF" stroke-width="1.2" opacity="0.22"/>
  <path d="M -40 230 C 160 390, 330 405, 510 260 S 860 70, 1240 225" stroke="#8FC2FF" stroke-width="1.1" opacity="0.20"/>
  <path d="M 30 520 C 250 380, 420 420, 610 500 S 950 570, 1220 430" stroke="#B1D6FF" stroke-width="1" opacity="0.18"/>
</svg>
